<?xml version="1.0" encoding="utf-8"?>
<!-- Generator: Adobe Illustrator 24.1.0, SVG Export Plug-In . SVG Version: 6.00 Build 0)  -->
<svg version="1.1" id="Ebene_1" xmlns="http://www.w3.org/2000/svg" xmlns:xlink="http://www.w3.org/1999/xlink" x="0px" y="0px"
	 viewBox="0 0 201.9 283" style="enable-background:new 0 0 201.9 283;" xml:space="preserve">
<style type="text/css">
	.st0{fill:none;stroke:#000000;stroke-width:4;}
</style>
<path class="st0" d="M30.7,110.6c-1.6,0-2.5,1.3-1.7,2.3c10.2,11.5,55.4,62.7,59.2,67.8c4.3,5.7,6.6,7.7,6.6,41.6s-5.3,34.9-9.9,37
	c-5.5,2.5-27.3,3.8-27.3,8.6c0,0.8,1,1.4,1.9,1.4h80.8c1.2,0,2-0.7,2-1.4c0-4.8-21.9-6-27.4-8.6c-4.6-2.2-9.9-3.1-9.9-37
	s2.3-35.9,6.6-41.6c3.8-5.1,49-56.3,59.2-67.8c0.9-1-0.1-2.3-1.7-2.3C169.1,110.6,30.7,110.6,30.7,110.6z"/>
<g>
	<path d="M115.4,51.4c-1.5,0.5-3.4,0.9-5.4,0.9c-1.4,0-2.8-0.2-4.1-0.6c-1-0.3-2.1,0.1-2.7,1c0,0,0,0.1-0.1,0.1
		c-1.2,1.6-1.9,3.8-1.9,6.3c0,2.2,0.6,4.2,1.6,5.8c0.1,0.2,0.2,0.5,0.3,0.7c1.2-1.1,2.6-2,4.4-2.7c4.8-2.1,10.7-2.3,14.6-0.5
		c2.1,0.9,3.9,2.2,5.4,3.8c0.4,0.5,1.2,0.4,1.6-0.1c3.2-4.4,11.5-11.1,24.4-9.6c0.5,0,1,0.4,1,1c0.1,0.7-0.5,1.2-1.2,1.1
		c-14.1-1.6-21.2,6.9-22.6,9.2c0,0,0,0.1-0.1,0.2c-0.5,0.8-0.6,1.8-0.2,2.7c0.4,0.9,0.6,1.8,0.8,2.7c0.8,4.5-0.7,8.9-4.3,12.5
		c-0.2,0.2-0.5,0.3-0.8,0.3s-0.5-0.1-0.7-0.2c-0.5-0.4-0.4-1.2,0-1.6c4-4,4.2-8,3.7-10.6c-0.8-4-3.7-7.6-7.7-9.4
		c-3.5-1.5-8.6-1.3-12.9,0.5c-2.3,1-4.1,2.3-5.2,3.9c-0.1,0.3-0.2,0.5-0.4,0.8c-0.2,0.3-0.3,0.5-0.4,0.8c0,0.1-0.1,0.2-0.1,0.2
		c-0.6,1.4-1,3-1,4.8c0,2.4,0.8,4.7,1.9,6.3c0.4,0.5,1.1,0.5,1.6,0.1c2.2-2.6,5.2-4.4,8.9-5.5c0.6-0.2,1.2,0.2,1.4,0.8
		c0.1,0.5-0.2,1.1-0.8,1.3c-8,2.4-11.9,8.3-12.4,18.3c0.1,0.2,0.2,0.5,0.3,0.7c1.2-1.3,2.8-2.3,4.7-3c6.8-2.6,16.1-1,21.7,1.8
		c3.2,1.6,5.8,4,7.3,5.7c0.5,0.6,1.4,0.6,2,0.1c5.5-5,15-6.6,20.9-3c0.5,0.3,0.7,1,0.3,1.5c-0.3,0.5-1,0.6-1.5,0.3
		c-5.8-3.5-15.8-1.1-19.9,4.6l-0.2,0.2c-0.4,0.5-1.1,0.5-1.4,0l-0.2-0.2c0,0-3.3-4.7-8.4-7.3c-5.1-2.6-13.9-4.1-20-1.7
		c-2.8,1.1-4.8,2.8-5.8,5.2c-0.3,0.9-0.5,1.9-0.5,2.9c0,2.4,0.9,4.5,2.4,6.1c7.2,0,7.7,0,14.4,0c0.8-0.5,1.5-1,1.9-1.3
		c0.5-0.4,1.3-0.3,1.6,0.3c0.2,0.3,0.2,0.7,0,1c19.7,0,41.1,0,43.6,0c3.8-4.8,6-10.9,6-17.4c0-4-0.8-7.8-2.3-11.2
		c-1.7-3.7-5-6.5-9-7.2c-0.2,0-0.4,0-0.5-0.1c-4.4-0.6-8.7,1.3-10.9,3.2c-0.5,0.5-0.8,1.2-0.6,1.9c0.1,0.6,0.3,1.1,0.3,1.7
		c0.4,3.1-0.3,5.7-1.7,7.3c-0.2,0.3-0.5,0.4-0.8,0.4c-0.3,0-0.6-0.1-0.8-0.4c-0.4-0.4-0.3-1,0.1-1.5c1-1.2,1.4-3.2,1.1-5.5
		c-0.4-3.5-2.3-6.9-4.8-8.5c-0.5-0.4-0.6-1.2-0.1-1.7c0.4-0.4,1-0.4,1.4-0.1c1.3,0.9,2.5,2.2,3.5,3.8c0.4,0.6,1.3,0.8,1.9,0.4
		c0.9-0.7,2.1-1.3,3.2-1.8c1.9-0.8,5-1.7,8.6-1.3c1.8,0.2,3.8,0.8,5.8,2c0.8,0.5,1.8,0.1,2.2-0.7c0.4-0.9,0.6-1.8,0.8-2.9
		c1-4.5-1.1-13.1-6-20.7c-6.8-9.9-14.3-13-17.8-13.7c-0.9-0.2-1.7,0.5-1.8,1.4c0,0.7-0.1,1.4-0.3,2.2c-0.6,2.6-2.1,4.9-4.1,6.3
		c-0.6,0.5-0.9,1.2-0.7,1.9c0.3,1.2,0.3,2.3,0.1,3.3c-0.1,0.5-0.5,0.8-1,0.8c-0.1,0-0.2,0-0.4-0.1c-0.5-0.2-0.8-0.8-0.7-1.3
		c0.3-1.5-0.3-3.5-1.6-5.4c-2.1-2.9-5.2-5-8.2-5.3c-0.7,0-1.1-0.7-0.9-1.4c0.1-0.5,0.7-0.8,1.2-0.8c3.5,0.4,7.3,2.8,9.7,6.2
		c0.3,0.4,0.9,0.5,1.4,0.2c1.5-1.1,2.7-3,3.2-5c0.4-1.8,0.3-3.8-0.4-5.7c-0.7-2-2-3.7-3.5-5.1c-4.7-4.1-11.6-8.3-20.3-8.8
		c-1.2-0.1-2.5-0.1-3.8,0c-8.6,0.6-10.6,4.8-10.8,10.7c0,1,0.1,1.8,0.2,2.4c0.1,0.6,0.9,0.9,1.4,0.4c3.6-3.1,7.9-4.2,12.7-3.4
		c0.7,0.1,1.1,0.8,0.8,1.5c-0.2,0.5-0.7,0.8-1.3,0.7c-5-0.9-9.3,0.8-12.8,4.9c-1,1.2-1.5,2.7-1.5,4.2c0,1.9,0.5,3.6,1.2,5.1
		c0.4,0.8,1,1.5,1.7,2c0.2,0.1,0.4,0.3,0.6,0.4c3.1,1.8,7.2,1.5,9.9,0.5c0.6-0.2,1.3,0.1,1.4,0.8C116.2,50.7,115.9,51.2,115.4,51.4z
		"/>
	<path d="M78.4,110.6c-0.2-0.3-0.3-0.7,0-1.1c0.4-0.6,1.1-0.7,1.6-0.3c0.4,0.3,1.1,0.8,2,1.4c6.6,0,7.1,0,14.2,0
		c1.5-1.6,2.4-3.8,2.4-6.2c0-1-0.2-2-0.5-2.9c-1-2.4-2.9-4.1-5.8-5.2c-6.2-2.3-14.9-0.9-20,1.7c-5.1,2.6-8.4,7.2-8.4,7.3l-0.2,0.2
		c-0.3,0.5-1,0.5-1.4,0l-0.2-0.2c-4.1-5.8-14.2-8.1-19.9-4.6c-0.5,0.3-1.1,0.2-1.5-0.3c-0.4-0.5-0.2-1.2,0.3-1.5
		c5.9-3.6,15.4-2.1,20.9,3c0.6,0.5,1.5,0.5,2-0.1c1.6-1.7,4.1-4.1,7.3-5.7c5.6-2.8,14.9-4.4,21.7-1.8c1.9,0.7,3.5,1.7,4.7,3
		c0.1-0.2,0.2-0.5,0.3-0.7c-0.5-10-4.5-15.8-12.4-18.3c-0.6-0.2-0.9-0.8-0.8-1.3c0.1-0.6,0.8-1,1.4-0.8c3.7,1.1,6.7,2.9,8.9,5.5
		c0.4,0.5,1.2,0.5,1.6-0.1c1.2-1.6,1.9-3.8,1.9-6.3c0-1.8-0.4-3.4-1-4.8c0-0.1-0.1-0.2-0.1-0.2c-0.1-0.3-0.2-0.5-0.4-0.8
		c-0.1-0.3-0.3-0.5-0.4-0.8c-1.1-1.6-2.8-2.9-5.2-3.9c-4.3-1.8-9.5-2.1-12.9-0.5c-4,1.8-6.9,5.4-7.7,9.4c-0.5,2.6-0.2,6.6,3.7,10.6
		c0.4,0.4,0.5,1.2,0,1.6c-0.2,0.2-0.5,0.2-0.7,0.2c-0.3,0-0.5-0.1-0.8-0.3c-3.6-3.6-5.1-8.1-4.3-12.5c0.2-0.9,0.4-1.8,0.8-2.7
		c0.4-0.9,0.3-1.9-0.2-2.7c-0.1-0.1-0.1-0.1-0.1-0.2c-1.4-2.2-8.4-10.8-22.6-9.2c-0.6,0.1-1.3-0.5-1.2-1.1c0-0.5,0.5-0.9,1-1
		C59.3,55,67.6,61.7,70.8,66c0.4,0.5,1.1,0.5,1.6,0.1c1.5-1.6,3.3-2.9,5.4-3.8c4-1.7,9.8-1.5,14.6,0.5c1.7,0.7,3.2,1.7,4.4,2.7
		c0.1-0.2,0.2-0.5,0.3-0.7c1-1.5,1.6-3.6,1.6-5.8c0-2.4-0.7-4.6-1.9-6.3c0,0,0-0.1-0.1-0.1c-0.6-0.9-1.7-1.3-2.7-1
		c-1.4,0.4-2.8,0.6-4.1,0.6c-2,0-3.9-0.4-5.4-0.9c-0.5-0.2-0.8-0.7-0.7-1.2c0.1-0.7,0.8-1,1.4-0.8c2.7,1,6.9,1.3,9.9-0.5
		c0.2-0.1,0.4-0.3,0.6-0.4c0.7-0.5,1.3-1.2,1.7-2c0.7-1.4,1.2-3.2,1.2-5.1c0-1.5-0.5-3-1.5-4.2c-3.5-4.2-7.7-5.8-12.8-4.9
		c-0.5,0.1-1.1-0.1-1.3-0.7c-0.3-0.6,0.1-1.3,0.8-1.5c4.8-0.9,9.1,0.3,12.7,3.4c0.5,0.4,1.2,0.2,1.4-0.4c0.1-0.6,0.2-1.4,0.2-2.4
		c-0.2-5.8-2.1-10-10.8-10.6c-1.3-0.1-2.6-0.1-3.8,0c-8.7,0.5-15.6,4.7-20.1,8.7c-1.5,1.4-2.8,3.1-3.5,5.1c-0.6,1.9-0.8,3.9-0.4,5.7
		c0.5,2.1,1.7,3.9,3.2,5c0.4,0.3,1.1,0.2,1.4-0.2c2.4-3.4,6.2-5.8,9.7-6.2c0.5-0.1,1,0.3,1.2,0.8c0.2,0.7-0.3,1.3-0.9,1.4
		c-3,0.3-6.1,2.4-8.2,5.3c-1.4,1.9-1.9,3.9-1.6,5.4c0.1,0.5-0.1,1.1-0.7,1.3c-0.1,0-0.2,0.1-0.4,0.1c-0.5,0-0.9-0.3-1-0.8
		c-0.3-1-0.2-2.1,0.1-3.3c0.2-0.7-0.1-1.5-0.7-1.9c-2-1.4-3.5-3.7-4.1-6.3c-0.2-0.7-0.3-1.4-0.3-2.2c0-0.9-0.9-1.6-1.8-1.4
		c-3.5,0.8-11,3.9-17.8,13.7c-4.9,7.6-6.9,16.2-6,20.7c0.1,1,0.4,2,0.8,2.9c0.4,0.8,1.4,1.2,2.2,0.7c2.1-1.2,4.1-1.8,5.8-2
		C44,72,47,72.9,49,73.8c1.2,0.5,2.3,1.1,3.2,1.8c0.6,0.4,1.5,0.3,1.9-0.4c0.9-1.5,2.1-2.8,3.5-3.8c0.4-0.3,1-0.3,1.4,0.1
		c0.5,0.5,0.4,1.3-0.1,1.7c-2.4,1.7-4.3,5-4.8,8.5C53.6,84,54,86,55,87.2c0.4,0.4,0.4,1,0.1,1.5c-0.2,0.3-0.5,0.4-0.8,0.4
		s-0.6-0.1-0.8-0.4c-1.5-1.7-2.1-4.3-1.7-7.3c0.1-0.6,0.2-1.1,0.3-1.7c0.2-0.7,0-1.4-0.6-1.9c-2.2-1.9-6.5-3.7-10.9-3.2
		c-0.2,0-0.4,0-0.5,0.1c-4,0.7-7.3,3.5-9,7.2c-1.5,3.5-2.3,7.2-2.3,11.2c0,6.6,2.3,12.6,6.1,17.5C37.5,110.6,58.8,110.6,78.4,110.6z
		"/>
	<path d="M100.2,110.6c-0.1-0.1-0.1-0.2-0.2-0.3c-0.1,0.1-0.1,0.2-0.2,0.3C100,110.6,100,110.6,100.2,110.6z"/>
</g>
<path d="M104.7,128.6c2,0,3.6,1.6,3.6,3.6s-1.6,3.6-3.6,3.6s-3.6-1.6-3.6-3.6C101.2,130.2,102.8,128.6,104.7,128.6z M107.1,124.2
	c8.4,1.6,16,5.9,21.8,12.5c-5.7,6.6-13.4,10.9-21.8,12.5c4.3-2.5,7.2-7.1,7.2-12.5C114.4,131.4,111.5,126.7,107.1,124.2z
	 M92.8,124.2c-4.3,2.5-7.2,7.2-7.2,12.5s2.9,10,7.2,12.5c-8.4-1.6-16-5.9-21.8-12.5C76.7,130.2,84.4,125.8,92.8,124.2z M100,117.8
	c-13.8,0-26.5,6.3-35,17.2l-1.4,1.8l1.4,1.8c8.5,10.9,21.2,17.2,35,17.2s26.5-6.3,35-17.2l1.4-1.8L135,135
	C126.5,124.1,113.7,117.8,100,117.8z"/>
<path d="M170.1,137c-0.1,0.2-0.2,0.4-0.2,0.6c-1.4,3.6-3.1,7.1-4.9,10.6c-1.8,3.4-3.5,6.8-5.3,10.3c-1.2,2.4-1.8,5-1.3,7.7
	c0.4,2.6,1.6,4.9,3.6,6.8c3,2.7,6.5,3.7,10.5,3c2.6-0.5,4.9-1.8,6.6-3.8c1.7-1.9,2.7-4.2,2.9-6.8c0.2-2.4-0.3-4.6-1.4-6.7
	c-1.1-2.2-2.2-4.4-3.4-6.6c-2.1-3.9-4.2-7.8-5.9-11.9C170.9,139,170.5,138,170.1,137z"/>
</svg>
